# xmcd
#
# Track frame offsets:
#	200
#	22572
#	45667
#	63530
#	84317
#	111582
#	137310
#	159137
#	191677
#	212075
#	230652
#	246747
#
# Disc length: 3643 seconds
#
# Revision: 1
# Processed by: cddbd v1.5.1PL2 Copyright (c) Steve Scherf et al.
# Submitted via: CDRider 2.1
#
DISCID=9d0e390c
DTITLE=Magnificent Sevenths - Best of Bourbon Street Blues
DYEAR=1997
DGENRE=Blues
TTITLE0=Watermelon Man
TTITLE1=Born under a bad sign
TTITLE2=Big Legged Woman
TTITLE3=I want to be with her
TTITLE4=I got a woman
TTITLE5=Nobody knows you when your down and out
TTITLE6=Trouble in mind
TTITLE7=Georgia
TTITLE8=God bless the child
TTITLE9=Things aint what they used to be
TTITLE10=Everyday I have the blues
TTITLE11=St. James Infirmary
EXTD=
EXTT0=
EXTT1=
EXTT2=
EXTT3=
EXTT4=
EXTT5=
EXTT6=
EXTT7=
EXTT8=
EXTT9=
EXTT10=
EXTT11=
PLAYORDER=
